<svg xmlns="http://www.w3.org/2000/svg" width="1200" height="700" viewBox="0 0 1200 700">
  <defs>
    <linearGradient id="bg" x1="0" x2="1">
      <stop offset="0" stop-color="#1b1e26"/>
      <stop offset="1" stop-color="#141720"/>
    </linearGradient>
    <linearGradient id="card" x1="0" x2="0" y1="0" y2="1">
      <stop offset="0" stop-color="#f7e7b0"/>
      <stop offset="1" stop-color="#f2d27a"/>
    </linearGradient>
  </defs>
  <rect width="1200" height="700" rx="42" fill="url(#bg)"/>
  <g opacity="0.16">
    <circle cx="120" cy="110" r="60" fill="#f6c74a"/>
    <circle cx="1040" cy="140" r="36" fill="#f6c74a"/>
    <circle cx="1020" cy="520" r="90" fill="#f6c74a"/>
  </g>
  <path d="M0 560 C240 520, 420 640, 650 600 C890 560, 980 620, 1200 590 L1200 700 L0 700 Z" fill="#223043"/>
  <g transform="translate(840,250)">
    <rect x="0" y="110" width="260" height="220" rx="18" fill="#e08a2e"/>
    <path d="M0 120 L130 20 L260 120 Z" fill="#c7741f"/>
    <rect x="90" y="200" width="80" height="130" rx="12" fill="#1b1e26" opacity="0.55"/>
    <rect x="112" y="210" width="36" height="110" rx="10" fill="#f7e7b0" opacity="0.28"/>
    <rect x="20" y="160" width="70" height="70" rx="12" fill="#f7e7b0" opacity="0.35"/>
  </g>
  <g transform="translate(470,210)">
    <rect x="0" y="0" width="360" height="210" rx="22" fill="#f7e7b0" opacity="0.95"/>
    <rect x="22" y="22" width="316" height="44" rx="12" fill="#1b1e26" opacity="0.10"/>
    <g transform="translate(40,90)">
      <rect x="0" y="70" width="28" height="50" rx="6" fill="#f0a03a"/>
      <rect x="46" y="40" width="28" height="80" rx="6" fill="#f0a03a"/>
      <rect x="92" y="20" width="28" height="100" rx="6" fill="#f0a03a"/>
      <rect x="138" y="55" width="28" height="65" rx="6" fill="#f0a03a"/>
      <rect x="184" y="10" width="28" height="110" rx="6" fill="#f0a03a"/>
      <path d="M0 120 H250" stroke="#1b1e26" opacity="0.25" stroke-width="4" />
      <path d="M8 90 C70 30, 130 80, 210 35" fill="none" stroke="#1b1e26" opacity="0.35" stroke-width="5" stroke-linecap="round"/>
    </g>
  </g>
  <g transform="translate(610,470)">
    <ellipse cx="0" cy="40" rx="70" ry="48" fill="#ffffff" opacity="0.95"/>
    <circle cx="52" cy="28" r="26" fill="#ffffff" opacity="0.95"/>
    <circle cx="60" cy="24" r="5" fill="#1b1e26" opacity="0.65"/>
    <path d="M72 32 L98 42 L72 50 Z" fill="#f0a03a"/>
    <path d="M44 5 C55 -10, 70 -8, 70 5 C70 20, 55 22, 44 5 Z" fill="#d43a3a"/>
    <path d="M30 52 C-5 65, -45 60, -70 40 C-40 28, -12 30, 8 42" fill="#f2d27a" opacity="0.85"/>
    <path d="M-30 85 v26" stroke="#f0a03a" stroke-width="8" stroke-linecap="round"/>
    <path d="M10 85 v26" stroke="#f0a03a" stroke-width="8" stroke-linecap="round"/>
  </g>
  <g transform="translate(340,470)">
    <rect x="0" y="60" width="70" height="110" rx="14" fill="#7bb6ff" opacity="0.75"/>
    <rect x="16" y="40" width="38" height="28" rx="10" fill="#7bb6ff" opacity="0.75"/>
    <rect x="100" y="70" width="110" height="120" rx="18" fill="url(#card)" opacity="0.95"/>
    <path d="M110 95 h90" stroke="#1b1e26" opacity="0.2" stroke-width="6" stroke-linecap="round"/>
    <circle cx="155" cy="140" r="20" fill="#f0a03a" opacity="0.95"/>
    <path d="M155 128 v24 M143 140 h24" stroke="#1b1e26" opacity="0.35" stroke-width="6" stroke-linecap="round"/>
  </g>
</svg>
